<svg width="100" height="100" viewBox="0 0 100 100" fill="none" xmlns="http://www.w3.org/2000/svg">
<g id="Quote Icon">
<path id="&#226;&#128;&#156;" d="M8.17114 82V63.6886C8.17114 58.4226 9.15852 52.9472 11.1333 47.2623C13.1679 41.5175 15.9206 36.1019 19.3913 31.0154C22.922 25.8691 26.8715 21.5306 31.2399 18L46.3198 27.784C42.7892 33.1099 39.8271 38.6751 37.4334 44.4797C35.0996 50.2244 33.9626 56.5675 34.0225 63.5091V82H8.17114ZM53.6803 82V63.6886C53.6803 58.4226 54.6676 52.9472 56.6424 47.2623C58.677 41.5175 61.4297 36.1019 64.9004 31.0154C68.4311 25.8691 72.3806 21.5306 76.749 18L91.8289 27.784C88.2983 33.1099 85.3362 38.6751 82.9425 44.4797C80.6087 50.2244 79.4717 56.5675 79.5316 63.5091V82H53.6803Z" fill="#FFAD31"/>
</g>
</svg>
